<svg width="17" height="15" viewBox="0 0 17 15" fill="none" xmlns="http://www.w3.org/2000/svg">
<path d="M15.5007 2.43507H12.6745V1.34806C12.6745 0.994784 12.3756 0.695856 12.0223 0.695856H4.63064C4.25019 0.695856 3.97843 0.994784 3.97843 1.34806V2.43507H1.15221C0.771753 2.43507 0.5 2.734 0.5 3.08728V4.60909C0.5 5.5874 1.09786 6.59289 2.15769 7.3538C3.0273 7.97883 4.05996 8.35928 5.14697 8.49516C6.01658 9.90827 7.02206 10.479 7.02206 10.479V12.4356H5.71765C4.73934 12.4356 3.97843 13.0063 3.97843 13.9574V14.2835C3.97843 14.4737 4.11431 14.6096 4.30454 14.6096H12.3484C12.5115 14.6096 12.6745 14.4737 12.6745 14.2835V13.9574C12.6745 13.0063 11.8864 12.4356 10.9353 12.4356H9.63089V10.479C9.63089 10.479 10.6092 9.90827 11.4788 8.49516C12.5658 8.35928 13.5985 7.97883 14.4681 7.3538C15.5279 6.59289 16.153 5.5874 16.153 4.60909V3.08728C16.153 2.734 15.854 2.43507 15.5007 2.43507ZM3.19035 5.94068C2.51097 5.4787 2.23922 4.9352 2.23922 4.60909V4.17429H3.97843C4.00561 5.07107 4.14149 5.85916 4.33171 6.53854C3.89691 6.37549 3.51645 6.18526 3.19035 5.94068ZM14.4137 4.60909C14.4137 5.07107 13.9246 5.61458 13.4354 5.94068C13.1093 6.18526 12.7289 6.37549 12.2941 6.53854C12.4843 5.85916 12.6202 5.07107 12.6473 4.17429H14.4137V4.60909Z" fill="#2895FF"/>
</svg>
