<svg width="36" height="24" viewBox="0 0 36 24" fill="none" xmlns="http://www.w3.org/2000/svg">
<rect width="36" height="24" rx="4" fill="white"/>
<path d="M14.34 21.32L14.69 19.12H13.91H10.23L12.79 2.85999C12.7968 2.80961 12.8217 2.76342 12.86 2.72999C12.9002 2.69893 12.9492 2.68142 13 2.67999H19.21C21.28 2.67999 22.7 3.10999 23.45 3.95999C23.7818 4.31652 24.0131 4.75479 24.12 5.22999C24.2366 5.8075 24.2366 6.40249 24.12 6.97999V7.47999L24.47 7.67999C24.7364 7.81279 24.9769 7.9923 25.18 8.20999C25.4856 8.57899 25.683 9.02555 25.75 9.49999C25.8249 10.1202 25.7979 10.7485 25.67 11.36C25.5381 12.1028 25.2775 12.8168 24.9 13.47C24.5949 13.9936 24.1825 14.4469 23.69 14.8C23.1942 15.138 22.6423 15.3852 22.06 15.53C21.4063 15.6949 20.7342 15.7756 20.06 15.77H19.57C19.2266 15.77 18.894 15.8903 18.63 16.11C18.3646 16.3336 18.1903 16.6466 18.14 16.99V17.19L17.53 21.07V21.22C17.5372 21.2462 17.5372 21.2738 17.53 21.3H17.47L14.34 21.32Z" fill="#253D80"/>
<path d="M24.8 7.08002L24.74 7.45002C23.92 11.65 21.11 13.11 17.53 13.11H15.71C15.2721 13.1095 14.8989 13.4276 14.83 13.86L13.9 19.78L13.63 21.46C13.6097 21.5945 13.6488 21.7313 13.737 21.8348C13.8252 21.9384 13.954 21.9986 14.09 22H17.33C17.7142 21.9997 18.0409 21.7196 18.1 21.34V21.18L18.71 17.31V17.1C18.7646 16.722 19.088 16.4411 19.47 16.44H20C23.13 16.44 25.59 15.17 26.3 11.44C26.6842 10.1652 26.4472 8.78389 25.66 7.71002C25.4102 7.45383 25.1196 7.24093 24.8 7.08002V7.08002Z" fill="#2895FF"/>
<path d="M23.94 6.74003L23.56 6.64003L23.14 6.56003C22.6105 6.48084 22.0754 6.44406 21.54 6.45003H16.66C16.546 6.4469 16.4329 6.47089 16.33 6.52003C16.0981 6.62859 15.9365 6.84661 15.9 7.10003L14.9 13.67V13.86C14.9689 13.4276 15.3421 13.1095 15.78 13.11H17.6C21.18 13.11 23.99 11.65 24.81 7.45003L24.87 7.08003C24.6546 6.96872 24.4306 6.87508 24.2 6.80003L23.94 6.74003Z" fill="#242E65"/>
<path d="M15.9 7.1C15.9365 6.84658 16.0981 6.62856 16.33 6.52C16.4329 6.47086 16.546 6.44687 16.66 6.45H21.54C22.0754 6.44403 22.6105 6.48081 23.14 6.56L23.56 6.64L23.94 6.74L24.13 6.8C24.3606 6.87505 24.5846 6.96869 24.8 7.08C25.1251 5.83063 24.8271 4.50118 24 3.51C23 2.45 21.36 2 19.22 2H13C12.5621 1.99947 12.1889 2.31756 12.12 2.75L9.53001 19.16C9.50683 19.3148 9.55191 19.472 9.65359 19.5909C9.75526 19.7098 9.90354 19.7788 10.06 19.78H13.9L14.9 13.67L15.9 7.1Z" fill="#253D80"/>
</svg>
